<?xml version="1.0" standalone="no"?>
<!DOCTYPE svg PUBLIC "-//W3C//DTD SVG 20010904//EN"
 "http://www.w3.org/TR/2001/REC-SVG-20010904/DTD/svg10.dtd">
<svg version="1.0" xmlns="http://www.w3.org/2000/svg"
 width="512.000000pt" height="512.000000pt" viewBox="0 0 512.000000 512.000000"
 preserveAspectRatio="xMidYMid meet">

<g transform="translate(0.000000,512.000000) scale(0.100000,-0.100000)"
fill="#000000" stroke="none">
<path d="M1322 3900 c-65 -40 -63 -11 -60 -853 l3 -762 23 -57 c47 -117 143
-213 260 -260 l57 -23 730 -3 c505 -2 750 1 795 8 169 29 317 177 350 350 5
29 10 72 10 95 l0 43 138 4 c117 4 149 9 221 33 244 83 445 312 490 559 26
141 6 322 -50 444 -77 171 -243 331 -408 393 -132 49 -123 49 -1364 49 -1148
0 -1162 0 -1195 -20z m2383 -365 c110 -29 198 -104 247 -211 19 -40 23 -66 23
-144 0 -82 -4 -103 -27 -152 -35 -76 -104 -148 -175 -183 -51 -26 -71 -30
-170 -33 l-113 -4 0 371 0 371 78 0 c43 0 105 -7 137 -15z"/>
<path d="M770 1657 c0 -18 7 -59 15 -92 39 -148 155 -274 310 -336 l60 -24
1309 -3 c855 -1 1329 1 1365 8 93 17 190 71 260 145 34 36 73 89 87 117 23 46
53 158 54 201 0 16 -89 17 -1730 17 l-1730 0 0 -33z"/>
</g>
</svg>
