<?xml version="1.0" standalone="no"?>
<!DOCTYPE svg PUBLIC "-//W3C//DTD SVG 20010904//EN"
 "http://www.w3.org/TR/2001/REC-SVG-20010904/DTD/svg10.dtd">
<svg version="1.0" xmlns="http://www.w3.org/2000/svg"
 width="512.000000pt" height="512.000000pt" viewBox="0 0 512.000000 512.000000"
 preserveAspectRatio="xMidYMid meet">

<g transform="translate(0.000000,512.000000) scale(0.100000,-0.100000)"
fill="#000000" stroke="none">
<path d="M1142 4031 c-66 -42 -90 -125 -56 -197 24 -50 71 -75 158 -81 l75 -6
10 -46 c6 -25 83 -392 171 -815 124 -599 160 -786 160 -845 0 -233 85 -392
253 -476 38 -19 76 -35 83 -35 9 0 7 -13 -8 -48 -33 -72 -31 -171 5 -244 48
-99 137 -158 248 -166 122 -9 229 52 287 162 22 43 27 64 27 131 0 58 -5 89
-18 113 l-18 32 261 0 c143 0 260 -2 260 -4 0 -2 -7 -23 -15 -46 -20 -56 -19
-135 2 -196 23 -69 110 -155 182 -179 109 -36 250 -1 318 80 69 80 93 206 59
301 l-14 42 112 4 c88 3 120 8 146 24 97 56 105 182 16 249 -27 20 -42 20
-905 25 l-878 5 -36 28 c-39 30 -50 46 -61 90 l-6 27 833 0 833 0 44 23 c25
12 52 36 61 52 26 46 322 1539 316 1594 -4 33 -14 52 -41 80 -34 33 -41 36
-119 43 -45 3 -573 7 -1173 7 l-1092 1 -7 38 c-17 95 -79 180 -162 222 -41 22
-64 25 -163 28 -101 2 -119 0 -148 -17z m1647 -750 c55 -39 66 -66 69 -171 l4
-98 98 -4 c106 -3 131 -14 174 -71 28 -37 28 -116 0 -154 -44 -59 -78 -73
-180 -73 l-92 0 -4 -99 c-2 -82 -7 -105 -24 -127 -52 -71 -117 -89 -189 -54
-66 32 -85 74 -85 190 l0 90 -91 0 c-113 0 -158 20 -190 87 -34 70 -15 135 55
187 22 17 45 22 127 24 l99 4 0 84 c0 93 13 136 52 172 48 44 127 50 177 13z"/>
</g>
</svg>
