<?xml version="1.0" standalone="no"?>
<!DOCTYPE svg PUBLIC "-//W3C//DTD SVG 20010904//EN"
 "http://www.w3.org/TR/2001/REC-SVG-20010904/DTD/svg10.dtd">
<svg version="1.0" xmlns="http://www.w3.org/2000/svg"
 width="512.000000pt" height="512.000000pt" viewBox="0 0 512.000000 512.000000"
 preserveAspectRatio="xMidYMid meet">

<g transform="translate(0.000000,512.000000) scale(0.100000,-0.100000)"
fill="#000000" stroke="none">
<path d="M1840 4262 c0 -164 61 -327 179 -474 121 -154 256 -235 429 -259 105
-15 112 -11 112 62 0 271 -182 549 -447 682 -57 30 -212 77 -249 77 -23 0 -24
-2 -24 -88z"/>
<path d="M1817 3475 c-348 -66 -605 -294 -720 -637 -153 -459 -29 -1108 308
-1613 200 -298 365 -439 529 -452 80 -7 164 12 326 72 134 50 251 70 360 62
75 -6 119 -18 330 -92 185 -65 290 -58 420 26 189 122 441 483 568 811 213
554 199 1089 -38 1438 -124 182 -305 311 -519 368 -79 20 -119 25 -221 25
-144 0 -193 -11 -442 -99 l-157 -55 -159 56 c-88 30 -195 64 -238 75 -105 28
-248 34 -347 15z"/>
</g>
</svg>
