<?xml version="1.0" standalone="no"?>
<!DOCTYPE svg PUBLIC "-//W3C//DTD SVG 20010904//EN"
 "http://www.w3.org/TR/2001/REC-SVG-20010904/DTD/svg10.dtd">
<svg version="1.0" xmlns="http://www.w3.org/2000/svg"
 width="512.000000pt" height="512.000000pt" viewBox="0 0 512.000000 512.000000"
 preserveAspectRatio="xMidYMid meet">
<metadata>
Created by potrace 1.16, written by Peter Selinger 2001-2019
</metadata>
<g transform="translate(0.000000,512.000000) scale(0.100000,-0.100000)"
fill="#000000" stroke="none">
<path d="M1220 2560 l0 -1490 145 0 145 0 0 1490 0 1490 -145 0 -145 0 0
-1490z"/>
<path d="M1660 2560 l0 -1490 1018 2 c975 3 1018 4 1052 22 68 37 109 77 139
138 l31 61 0 1267 0 1267 -31 61 c-32 65 -66 99 -133 135 l-41 22 -1017 3
-1018 2 0 -1490z m1798 748 l3 -148 -676 0 -675 0 0 143 c0 79 3 147 7 150 3
4 306 6 672 5 l666 -3 3 -147z m2 -598 l0 -150 -675 0 -675 0 0 150 0 150 675
0 675 0 0 -150z"/>
</g>
</svg>
