<?xml version="1.0" standalone="no"?>
<!DOCTYPE svg PUBLIC "-//W3C//DTD SVG 20010904//EN"
 "http://www.w3.org/TR/2001/REC-SVG-20010904/DTD/svg10.dtd">
<svg version="1.0" xmlns="http://www.w3.org/2000/svg"
 width="512.000000pt" height="512.000000pt" viewBox="0 0 512.000000 512.000000"
 preserveAspectRatio="xMidYMid meet">

<g transform="translate(0.000000,512.000000) scale(0.100000,-0.100000)"
fill="#000000" stroke="none">
<path d="M1706 4115 c-98 -35 -156 -120 -156 -227 l0 -38 1011 0 1012 0 -6 58
c-8 93 -47 155 -122 195 -40 22 -41 22 -870 24 -695 2 -836 0 -869 -12z"/>
<path d="M1555 3728 c-3 -7 -4 -537 -3 -1178 l3 -1165 1005 0 1005 0 0 1175 0
1175 -1003 3 c-797 2 -1004 0 -1007 -10z m1100 -285 c15 -14 16 -29 10 -97 -3
-45 -9 -91 -11 -102 -5 -18 0 -23 30 -28 63 -12 169 -73 228 -132 96 -96 148
-216 148 -346 l0 -68 -501 0 -502 0 5 96 c5 86 9 103 46 177 51 103 130 185
225 232 38 19 84 37 103 41 30 5 35 10 30 28 -2 11 -8 57 -11 102 -9 106 -2
114 105 114 60 0 82 -4 95 -17z m500 -897 c27 -20 35 -145 11 -181 l-16 -25
-590 0 -590 0 -16 25 c-24 36 -16 161 11 181 28 21 1162 21 1190 0z m-1063
-563 c22 -20 23 -56 2 -77 -11 -12 -36 -16 -94 -16 -58 0 -83 4 -94 16 -21 20
-20 53 1 76 22 25 157 26 185 1z m1120 0 c22 -20 23 -56 2 -77 -14 -14 -72
-16 -489 -16 l-475 0 -15 24 c-17 26 -8 69 17 79 7 3 222 6 477 6 419 1 466
-1 483 -16z m-1120 -280 c22 -20 23 -56 2 -77 -11 -12 -36 -16 -94 -16 -58 0
-83 4 -94 16 -21 20 -20 53 1 76 22 25 157 26 185 1z m1120 0 c22 -20 23 -56
2 -77 -14 -14 -72 -16 -489 -16 l-475 0 -15 24 c-17 26 -8 69 17 79 7 3 222 6
477 6 419 1 466 -1 483 -16z"/>
<path d="M1553 1212 c8 -94 48 -156 127 -198 33 -18 74 -19 880 -19 806 0 847
1 880 19 79 42 119 104 127 198 l6 58 -1013 0 -1013 0 6 -58z"/>
</g>
</svg>
