<?xml version="1.0" standalone="no"?>
<!DOCTYPE svg PUBLIC "-//W3C//DTD SVG 20010904//EN"
 "http://www.w3.org/TR/2001/REC-SVG-20010904/DTD/svg10.dtd">
<svg version="1.0" xmlns="http://www.w3.org/2000/svg"
 width="512.000000pt" height="512.000000pt" viewBox="0 0 512.000000 512.000000"
 preserveAspectRatio="xMidYMid meet">

<g transform="translate(0.000000,512.000000) scale(0.100000,-0.100000)"
fill="#000000" stroke="none">
<path d="M1095 4661 c-52 -23 -121 -99 -135 -148 -8 -27 -10 -239 -8 -743 4
-697 4 -706 26 -778 85 -278 268 -489 525 -607 125 -56 122 23 32 -783 -87
-789 -89 -819 -37 -924 40 -81 119 -160 202 -201 61 -30 70 -32 180 -32 104 0
121 3 172 27 68 31 149 105 185 166 36 61 63 155 63 220 0 32 -34 368 -76 749
-89 800 -92 722 33 778 257 118 439 329 526 610 21 69 21 85 25 780 3 791 6
756 -65 829 -52 54 -104 76 -181 76 -76 0 -124 -19 -175 -68 -76 -73 -71 -33
-77 -664 l-5 -566 -24 -26 c-32 -34 -88 -36 -119 -3 -21 22 -21 28 -24 577 -3
542 -4 556 -24 600 -46 97 -127 149 -232 150 -76 0 -124 -19 -175 -68 -76 -73
-71 -33 -77 -664 l-5 -566 -24 -26 c-32 -34 -88 -36 -119 -3 -21 22 -21 28
-24 577 -3 542 -4 556 -24 600 -27 56 -77 108 -129 131 -53 25 -157 25 -210 0z"/>
<path d="M3815 4661 c-44 -20 -110 -87 -126 -129 -26 -66 -289 -1448 -344
-1806 -25 -159 -18 -265 23 -348 17 -35 54 -87 84 -116 52 -52 154 -112 189
-112 17 0 18 -36 21 -757 3 -848 -1 -796 76 -877 52 -54 104 -76 182 -76 78 0
130 22 182 76 74 78 68 -101 68 2046 0 1862 -1 1934 -19 1973 -24 52 -75 103
-126 126 -53 25 -156 25 -210 0z"/>
</g>
</svg>
