<?xml version="1.0" standalone="no"?>
<!DOCTYPE svg PUBLIC "-//W3C//DTD SVG 20010904//EN"
 "http://www.w3.org/TR/2001/REC-SVG-20010904/DTD/svg10.dtd">
<svg version="1.0" xmlns="http://www.w3.org/2000/svg"
 width="512.000000pt" height="512.000000pt" viewBox="0 0 512.000000 512.000000"
 preserveAspectRatio="xMidYMid meet">

<g transform="translate(0.000000,512.000000) scale(0.100000,-0.100000)"
fill="#000000" stroke="none">
<path d="M1460 4042 c-28 -13 -56 -37 -73 -62 -16 -23 -17 -123 -17 -1423 l0
-1398 39 -42 c39 -41 41 -42 103 -42 59 1 70 5 160 58 53 31 100 57 103 57 3
0 54 -27 113 -60 144 -80 160 -80 299 0 58 33 108 60 111 60 3 0 53 -27 112
-60 142 -80 158 -80 300 0 59 33 109 60 112 60 3 0 53 -27 111 -60 139 -80
156 -80 300 0 59 33 110 60 113 60 3 0 49 -25 102 -56 143 -83 223 -84 280 -1
l22 33 0 1394 0 1394 -22 33 c-57 83 -137 82 -280 -1 -53 -31 -99 -56 -102
-56 -3 0 -54 27 -113 60 -147 82 -167 82 -293 -1 l-94 -62 -123 62 c-162 80
-172 80 -315 0 l-109 -61 -109 61 c-144 81 -159 81 -302 1 -59 -33 -110 -60
-113 -60 -3 0 -50 25 -103 56 -76 45 -108 58 -147 60 -27 2 -57 0 -65 -4z
m1592 -892 c48 -14 94 -67 103 -119 9 -57 -22 -120 -74 -149 -38 -22 -44 -22
-521 -22 -477 0 -483 0 -521 22 -52 29 -83 92 -74 149 9 49 55 106 99 118 44
13 942 14 988 1z m34 -466 c50 -37 69 -72 69 -124 0 -52 -19 -87 -69 -124 -27
-20 -41 -21 -499 -24 -260 -2 -487 0 -505 3 -18 3 -48 19 -67 36 -62 55 -70
138 -18 200 50 60 42 59 575 56 474 -2 487 -3 514 -23z m-5 -446 c52 -29 83
-92 74 -149 -9 -52 -55 -105 -103 -119 -50 -13 -934 -13 -984 0 -48 14 -94 67
-103 119 -9 56 22 119 72 149 38 21 43 22 522 22 479 0 484 0 522 -22z"/>
</g>
</svg>
