<?xml version="1.0" standalone="no"?>
<!DOCTYPE svg PUBLIC "-//W3C//DTD SVG 20010904//EN"
 "http://www.w3.org/TR/2001/REC-SVG-20010904/DTD/svg10.dtd">
<svg version="1.0" xmlns="http://www.w3.org/2000/svg"
 width="512.000000pt" height="512.000000pt" viewBox="0 0 512.000000 512.000000"
 preserveAspectRatio="xMidYMid meet">

<g transform="translate(0.000000,512.000000) scale(0.100000,-0.100000)"
fill="#000000" stroke="none">
<path d="M2976 3639 c-98 -24 -218 -114 -270 -204 -67 -114 -75 -278 -19 -398
18 -37 55 -91 83 -121 220 -233 608 -153 722 149 32 85 32 216 0 300 -45 117
-138 213 -249 256 -65 25 -203 34 -267 18z"/>
<path d="M1933 3325 c-79 -22 -131 -51 -194 -112 -218 -208 -158 -570 118
-705 65 -32 73 -33 184 -33 113 0 116 1 191 38 171 84 270 271 240 453 -43
257 -295 424 -539 359z"/>
<path d="M2755 2636 c-134 -31 -253 -95 -353 -190 l-62 -59 72 -19 c261 -66
481 -264 574 -516 l27 -72 493 0 c557 0 524 -5 524 78 -1 139 -44 303 -107
412 -72 122 -227 263 -348 315 -133 57 -141 58 -460 61 -226 2 -315 0 -360
-10z"/>
<path d="M1777 2329 c-156 -21 -307 -93 -422 -201 -79 -73 -122 -131 -168
-223 -56 -113 -70 -175 -71 -310 l-1 -120 914 -3 c667 -1 917 1 927 9 10 8 14
36 14 93 -1 279 -163 542 -412 672 -145 75 -205 86 -478 90 -129 1 -266 -2
-303 -7z"/>
</g>
</svg>
